<svg version="1.1" id="Layer_1" xmlns="http://www.w3.org/2000/svg" xmlns:xlink="http://www.w3.org/1999/xlink" x="0px" y="0px"
	 width="100%" viewBox="0 0 713 420" enable-background="new 0 0 713 420" xml:space="preserve">
<path fill="#FFFFFF" opacity="1.000000" stroke="none" 
	d="
M532.000000,421.000000 
	C354.666656,421.000000 177.833328,421.000000 1.000000,421.000000 
	C1.000000,281.000000 1.000000,141.000000 1.000000,1.000000 
	C238.666672,1.000000 476.333344,1.000000 714.000000,1.000000 
	C714.000000,141.000000 714.000000,281.000000 714.000000,421.000000 
	C653.500000,421.000000 593.000000,421.000000 532.000000,421.000000 
M181.138580,77.000839 
	C175.330414,61.438946 157.247787,48.394817 137.054626,53.118721 
	C123.473389,56.295856 113.697617,64.334221 108.427032,77.988174 
	C108.268951,78.654106 108.110870,79.320038 107.719597,80.465820 
	C107.701790,80.818123 107.683983,81.170433 107.122780,82.014221 
	C106.852509,83.685028 106.582237,85.355827 106.140747,87.884171 
	C106.196465,89.916504 106.252182,91.948845 106.152763,94.718422 
	C106.648003,96.298874 107.143234,97.879326 107.621391,100.248558 
	C108.696953,103.521744 109.395042,106.982231 110.910828,110.036972 
	C119.230881,126.804337 127.727966,143.484146 136.216522,160.167419 
	C138.875000,165.392349 141.695770,170.534714 144.812744,176.413681 
	C145.957565,174.657578 146.631805,173.790985 147.130600,172.833023 
	C154.784149,158.133820 162.587204,143.508698 169.983093,128.680618 
	C174.107315,120.411896 177.545578,111.801048 181.737122,103.139084 
	C181.875122,102.429459 182.013107,101.719826 182.354126,100.529152 
	C182.370926,100.183891 182.387711,99.838638 182.933548,98.995895 
	C183.190430,97.324463 183.447296,95.653030 183.871521,93.123451 
	C183.815796,91.091301 183.760056,89.059151 183.865601,86.283463 
	C183.353806,84.697502 182.842026,83.111534 182.378876,80.993988 
	C182.272736,80.657791 182.166580,80.321602 182.322266,79.602852 
	C181.939285,78.973755 181.556305,78.344666 181.138580,77.000839 
M182.363251,255.931351 
	C182.238876,255.620926 182.114502,255.310501 182.023987,254.242050 
	C177.160782,238.309296 158.901123,223.175903 137.224686,228.139297 
	C122.670181,231.471954 112.462593,240.287338 107.727379,255.417557 
	C107.753006,255.750305 107.778633,256.083069 107.278473,256.951508 
	C106.971748,258.639130 106.665031,260.326721 106.137131,262.866180 
	C106.210297,264.907349 106.283455,266.948517 106.227875,269.735321 
	C106.749329,271.355652 107.270782,272.976013 107.618568,275.069672 
	C107.731049,275.378174 107.843536,275.686646 107.750000,276.409180 
	C108.115669,277.057739 108.481339,277.706329 108.825539,279.125275 
	C109.152290,280.236603 109.316788,281.429718 109.829628,282.447235 
	C121.186386,304.980438 132.578171,327.495972 144.005478,349.993469 
	C144.163559,350.304718 144.861069,350.341980 145.215546,350.473297 
	C145.492355,350.342316 145.722672,350.311523 145.782288,350.194092 
	C157.426086,327.253021 169.281204,304.414734 180.552353,281.291779 
	C183.886871,274.450989 185.481415,266.797180 183.382507,258.499847 
	C182.990341,257.806854 182.598160,257.113831 182.363251,255.931351 
M460.021973,297.196381 
	C460.021973,293.604797 460.021973,290.013184 460.021973,286.618408 
	C465.849518,285.122498 469.553680,287.157837 472.068909,291.851318 
	C472.849792,293.308441 473.642456,294.874847 474.818787,295.975433 
	C476.325012,297.384644 478.224579,298.373505 479.954681,299.543488 
	C480.313477,299.085022 480.672272,298.626587 481.031097,298.168121 
	C478.239105,294.146606 475.447144,290.125092 472.647827,286.115997 
	C478.178528,283.012299 480.019348,279.964050 478.774384,275.676514 
	C477.237579,270.384064 472.956512,269.936676 468.425903,269.969482 
	C464.479004,269.998077 460.531769,269.975464 456.379211,269.975464 
	C456.379211,279.824524 456.379211,289.213287 456.379211,299.314972 
	C457.842255,298.836823 458.914337,298.486450 460.021973,297.196381 
M550.891418,110.469635 
	C549.554016,121.410690 555.340027,126.392609 564.925415,123.013565 
	C562.657715,133.564453 556.433838,127.118546 551.100464,124.617523 
	C551.736450,130.350693 554.903687,131.890869 559.095093,132.009079 
	C563.426208,132.131241 567.716370,130.841904 568.123047,126.123459 
	C568.779297,118.509361 568.299438,110.797340 568.299438,102.879471 
	C566.514648,103.331444 564.878723,104.301491 563.536194,103.993378 
	C556.131897,102.294044 554.167297,103.080193 550.891418,110.469635 
M399.550171,106.091759 
	C398.873749,108.431107 397.743927,110.744446 397.607880,113.114799 
	C397.235199,119.609467 401.021515,124.146378 406.398041,123.990921 
	C409.215088,123.909477 412.022461,123.493011 415.042816,123.208176 
	C415.042816,114.225380 415.042816,104.827637 415.042816,94.461586 
	C409.293945,96.405609 413.653748,101.890022 410.979919,104.352081 
	C407.148071,102.450951 403.408600,102.238029 399.550171,106.091759 
M458.632141,95.000961 
	C457.704865,95.746574 455.987701,96.475113 455.971161,97.240417 
	C455.781494,106.014168 455.850372,114.793510 455.850372,123.999130 
	C462.155884,123.999130 468.106628,124.069031 474.052551,123.930260 
	C475.042236,123.907173 476.010742,122.975487 476.989014,122.463684 
	C476.030426,121.924950 475.086456,120.953804 474.110748,120.920723 
	C469.339966,120.759048 464.560760,120.847481 459.753662,120.847481 
	C459.753662,117.007133 459.753662,113.769211 459.753662,110.151894 
	C464.201050,110.151894 468.340302,110.259537 472.465668,110.068085 
	C473.375092,110.025879 474.235321,108.923302 475.118225,108.309006 
	C474.231842,107.873093 473.356293,107.088493 472.457275,107.060616 
	C468.179321,106.928001 463.894989,107.001282 459.677795,107.001282 
	C459.677795,103.861115 459.677795,101.243073 459.677795,98.152840 
	C464.208374,98.152840 468.504517,98.257042 472.789703,98.086647 
	C474.007812,98.038208 475.194092,97.190468 476.394989,96.709274 
	C475.128418,96.139755 473.882416,95.140945 472.591522,95.079132 
	C468.273987,94.872368 463.940399,95.000717 458.632141,95.000961 
M576.498108,104.799759 
	C575.574768,106.184692 574.651367,107.569626 573.728027,108.954552 
	C574.095520,109.351387 574.463013,109.748215 574.830505,110.145050 
	C577.088379,108.782326 579.196411,106.812340 581.641663,106.208931 
	C584.776184,105.435440 587.665466,106.427734 587.626648,111.063950 
	C584.711060,111.612015 581.787720,112.125786 578.880249,112.717361 
	C575.431091,113.419136 572.774719,115.171822 573.285645,119.062675 
	C573.786499,122.877167 576.763306,124.169075 580.264343,123.988602 
	C584.022766,123.794853 587.765381,123.293259 591.192566,122.957581 
	C591.192566,119.240204 591.258179,114.772171 591.175598,110.306870 
	C591.078186,105.041672 589.191284,103.047333 583.885864,103.047684 
	C581.623108,103.047829 579.360413,103.860985 576.498108,104.799759 
M357.784058,284.868683 
	C358.717224,284.135712 359.545929,283.091949 360.605713,282.735687 
	C362.689148,282.035339 364.979248,281.158325 367.031250,281.445251 
	C368.313202,281.624542 369.316345,283.797363 371.167542,285.894714 
	C366.950928,286.657715 364.206024,287.143616 361.465546,287.653015 
	C357.827942,288.329071 355.015289,289.972015 355.659668,294.206146 
	C356.298798,298.405579 359.618347,299.195526 363.177979,298.986481 
	C366.651794,298.782501 370.107727,298.273956 373.488373,297.908112 
	C373.488373,294.480286 373.489777,290.192200 373.487885,285.904144 
	C373.486450,282.597565 373.126831,279.436096 369.184998,278.479431 
	C364.991486,277.461670 360.854797,277.455994 357.694885,280.916077 
	C356.973511,281.705994 357.247192,283.404663 357.784058,284.868683 
M598.489502,287.768982 
	C598.626648,283.254456 598.588135,278.902649 592.590942,278.045807 
	C586.872437,277.228760 582.926941,279.343719 581.041748,285.682190 
	C584.210144,283.757874 586.254822,281.924377 588.635681,281.206940 
	C592.324707,280.095367 594.170166,281.791321 594.629761,286.164948 
	C591.743835,286.693573 588.818542,287.183472 585.913696,287.773712 
	C582.646790,288.437469 580.267395,290.107056 580.599731,293.809906 
	C580.955994,297.779907 583.826721,299.086121 587.305420,298.974854 
	C591.109314,298.853210 594.899963,298.321747 598.489380,297.988129 
	C598.489380,295.303497 598.489380,292.001617 598.489502,287.768982 
M411.028839,279.119324 
	C407.369537,277.258820 403.821777,277.411194 400.979675,280.458649 
	C397.418732,284.276855 396.980377,289.184418 399.282043,293.430267 
	C400.626190,295.909912 403.956268,297.947327 406.805756,298.793884 
	C409.526245,299.602112 412.781982,298.608643 415.832306,298.405151 
	C415.832306,289.039032 415.832306,279.608307 415.832306,270.177551 
	C415.472900,269.950348 415.113495,269.723145 414.754089,269.495941 
	C414.010559,270.461884 412.845154,271.336334 412.611572,272.412903 
	C412.129791,274.633179 412.145233,276.961334 411.028839,279.119324 
M372.856873,113.653809 
	C372.855469,112.490654 372.853577,111.327492 372.852814,110.164337 
	C372.849731,105.459488 370.352814,103.250221 365.793030,102.967560 
	C359.972290,102.606743 356.973236,104.456856 355.519043,110.670914 
	C358.538361,108.785919 360.538177,106.922859 362.886566,106.212791 
	C366.573120,105.098129 368.419159,106.825691 368.755249,111.158577 
	C365.888641,111.692131 362.967163,112.164879 360.079285,112.792328 
	C356.852844,113.493355 354.504059,115.134560 354.841248,118.877151 
	C355.177399,122.608063 357.841736,123.983704 361.071411,123.961403 
	C365.041473,123.933975 369.007935,123.386436 372.856873,123.073410 
	C372.856873,120.511879 372.856873,117.556190 372.856873,113.653809 
M483.874390,290.787537 
	C484.650146,296.029327 487.853699,298.715363 492.979889,298.977814 
	C497.127960,299.190155 500.819031,298.232452 502.771942,292.616119 
	C499.004089,293.925140 496.103241,295.687073 493.156067,295.768280 
	C489.369232,295.872620 487.575256,293.101746 487.807831,288.736359 
	C492.974884,288.736359 497.868683,288.736359 502.713531,288.736359 
	C503.364471,278.740204 493.825409,275.795807 488.035767,279.472015 
	C484.161591,281.931946 483.568573,285.840424 483.874390,290.787537 
M437.039124,280.414490 
	C431.783386,277.203705 427.250153,277.210815 423.766418,280.435394 
	C420.583679,283.381256 419.622620,290.420532 421.982239,294.407288 
	C424.061371,297.920166 427.358673,299.303162 431.302917,298.988892 
	C434.876221,298.704163 438.227051,297.853973 439.566681,292.768311 
	C436.099518,293.968109 433.245667,295.669525 430.326385,295.790253 
	C426.433136,295.951233 424.644531,293.147522 424.700165,288.840515 
	C429.849548,288.840515 434.789154,288.840515 440.665131,288.840515 
	C439.456573,285.780670 438.508881,283.381348 437.039124,280.414490 
M562.856934,293.383545 
	C562.874207,290.884583 562.209778,288.098328 563.106628,285.969971 
	C563.950378,283.967621 566.218445,281.759735 568.259094,281.254364 
	C571.401550,280.476135 572.395752,283.286072 572.467102,286.023285 
	C572.558228,289.520233 572.326538,293.034973 572.608276,296.511688 
	C572.688965,297.506897 574.065430,298.397095 574.847778,299.335480 
	C576.033875,293.987213 576.149048,289.498352 576.003845,285.017914 
	C575.833618,279.765289 571.931702,276.894226 566.841919,278.175171 
	C565.586914,278.491058 564.422974,279.169006 563.175110,279.698303 
	C562.284119,270.370453 562.284119,270.370453 559.146362,270.379303 
	C559.146362,279.176819 559.074890,287.981934 559.253357,296.781982 
	C559.271912,297.693542 560.777161,298.574951 561.592529,299.470367 
	C562.013977,299.217438 562.435486,298.964508 562.856934,298.711578 
	C562.856934,297.246735 562.856934,295.781860 562.856934,293.383545 
M546.097351,120.583534 
	C546.260986,119.858330 546.424622,119.133125 546.588257,118.407906 
	C545.252258,118.686691 543.925354,119.023949 542.578369,119.231476 
	C540.140259,119.607109 537.413696,120.703812 535.332764,119.983055 
	C533.670898,119.407455 532.789124,116.579453 531.007385,113.926941 
	C537.293030,113.926941 542.067566,113.926941 546.813904,113.926941 
	C547.282654,107.453247 544.663086,103.746002 539.301758,103.018829 
	C533.810181,102.273987 529.160522,105.679550 528.339172,111.381790 
	C527.723511,115.655907 528.310547,119.739807 532.309998,122.408157 
	C536.226501,125.021118 541.037659,124.527733 546.097351,120.583534 
M420.802551,118.342911 
	C422.644104,122.901665 426.369202,124.247169 430.843781,123.972206 
	C434.479492,123.748787 437.599640,122.522003 438.927582,117.698914 
	C435.443176,118.918030 432.540253,120.671234 429.573151,120.787529 
	C425.754486,120.937218 423.763428,118.262222 424.025421,113.870644 
	C429.083740,113.870644 434.004395,113.870644 438.919647,113.870644 
	C438.815887,107.049438 436.105286,103.562477 430.757172,103.005165 
	C425.519684,102.459396 421.119019,105.499969 420.242035,110.707573 
	C419.868561,112.925552 420.378296,115.292274 420.802551,118.342911 
M314.373596,105.828781 
	C309.346954,113.869736 312.046234,122.880913 319.906830,123.913055 
	C324.358215,124.497536 328.152161,123.113220 330.252502,118.790771 
	C332.329498,114.516365 331.288544,108.155571 328.195190,105.358833 
	C324.743591,102.238190 320.168365,102.215958 314.373596,105.828781 
M528.617371,295.839142 
	C533.411438,299.655914 538.026306,300.069885 542.182068,297.055939 
	C545.600342,294.576843 546.875549,288.663727 545.028259,283.857971 
	C543.454468,279.763794 539.257019,277.412628 534.603210,278.018402 
	C527.115601,278.993042 524.219055,286.714539 528.617371,295.839142 
M332.008087,290.198395 
	C332.254364,285.474030 331.516266,281.186981 326.659241,278.913422 
	C321.422272,276.462067 315.275055,278.717285 313.308563,283.742004 
	C310.933136,289.811554 313.365814,296.421265 318.712524,298.425079 
	C324.474091,300.584381 329.736267,297.636963 332.008087,290.198395 
M485.860229,111.922211 
	C485.831207,108.063583 487.698334,105.821098 491.599396,106.125282 
	C495.472260,106.427246 495.459961,109.591774 495.490021,112.481880 
	C495.521149,115.471748 495.301544,118.482521 495.606293,121.441444 
	C495.714813,122.494987 497.039368,123.423271 497.808868,124.408737 
	C498.213287,124.122185 498.617706,123.835632 499.022125,123.549080 
	C499.022125,118.914337 499.168274,114.273712 498.981812,109.646492 
	C498.787781,104.830811 495.312897,102.271667 490.486176,103.012558 
	C487.998413,103.394424 485.493896,103.667046 482.143127,104.099136 
	C482.143127,106.532394 482.143158,109.938339 482.143158,113.344284 
	C482.143158,116.799820 482.143127,120.255348 482.143127,123.710884 
	C482.659332,123.963890 483.175507,124.216888 483.691711,124.469887 
	C484.413055,123.415024 485.636322,122.414200 485.756897,121.294640 
	C486.057526,118.502907 485.856689,115.657166 485.860229,111.922211 
M336.234802,106.836845 
	C335.827301,110.375549 334.790283,113.984070 335.173004,117.435135 
	C335.642700,121.670204 339.929932,124.336121 344.423798,124.000107 
	C348.891785,123.666016 351.676941,121.387978 352.462006,115.447174 
	C350.679565,116.490128 349.307678,116.817612 348.827759,117.655800 
	C346.724396,121.329315 343.888885,122.047272 340.532562,119.784828 
	C337.573700,117.790298 337.163544,110.653992 339.859680,107.963249 
	C342.694763,105.133842 345.575714,105.099197 348.320953,108.476814 
	C348.966003,109.270424 350.564850,109.288780 352.641388,109.960075 
	C348.659149,101.871521 342.933350,100.986427 336.234802,106.836845 
M342.965454,278.058441 
	C335.840454,278.899506 333.495483,287.608490 336.392944,294.030548 
	C338.271149,298.193604 342.052032,299.651337 346.373260,298.877625 
	C350.244324,298.184479 352.803711,295.868530 353.106079,290.366974 
	C351.408813,291.432373 350.136139,291.844849 349.466736,292.719208 
	C346.755768,296.260040 343.918671,297.018158 341.186737,294.681152 
	C338.348694,292.253357 337.980377,285.402344 340.774170,282.792389 
	C343.534058,280.214111 346.301208,280.239258 348.955841,283.307007 
	C349.699310,284.166199 351.200439,284.369751 353.425476,285.342468 
	C351.466248,279.298584 348.202179,277.759155 342.965454,278.058441 
M515.512085,281.042084 
	C517.013000,281.890564 518.472046,282.828522 520.028992,283.557251 
	C521.138550,284.076599 522.379883,284.314575 524.419922,284.941711 
	C521.362183,278.665497 517.880432,276.929565 513.082031,278.314331 
	C508.153046,279.736786 505.496429,284.376160 506.328949,290.107544 
	C507.180511,295.970001 510.486938,299.091766 515.783569,299.034058 
	C520.482178,298.982880 523.082642,296.587372 523.348145,291.110291 
	C521.965820,291.662079 520.837341,292.513611 519.993591,293.588623 
	C517.370544,296.930664 513.054260,296.766876 510.942383,293.162231 
	C508.460571,288.926117 510.155243,283.523651 515.512085,281.042084 
M294.841248,107.512764 
	C294.841125,104.362846 294.900299,101.211479 294.823517,98.063431 
	C294.751953,95.128242 294.688324,95.129791 291.227600,95.594254 
	C291.227600,104.980873 291.227600,114.357185 291.227600,123.784927 
	C297.212433,123.784927 302.941589,123.784927 308.670746,123.784927 
	C308.770233,123.278069 308.869690,122.771210 308.969177,122.264351 
	C305.050903,118.813522 299.524689,122.194489 294.841248,120.230141 
	C294.841248,116.425392 294.841248,112.466301 294.841248,107.512764 
M505.121613,108.951431 
	C505.121735,111.782295 505.076019,114.614052 505.131470,117.443832 
	C505.248566,123.421234 506.765472,124.602867 512.874634,123.420364 
	C511.519806,121.425735 509.538757,119.636787 509.043884,117.503151 
	C508.384186,114.658653 508.809937,111.543472 508.924988,108.550545 
	C508.956604,107.728043 509.385437,106.797028 509.917358,106.150597 
	C510.509857,105.430573 511.427856,104.978371 512.204163,104.409599 
	C511.162750,103.655151 510.121338,102.900703 508.878113,102.000046 
	C508.878113,101.270775 508.910187,100.276558 508.868439,99.285446 
	C508.831665,98.412163 508.712433,97.542351 508.629578,96.671013 
	C505.933411,98.857597 504.051392,101.296608 502.990479,104.051796 
	C502.631622,104.983727 504.350708,106.715790 505.121613,108.951431 
M295.152802,273.640381 
	C294.802277,270.048279 294.802277,270.048279 291.790710,270.830811 
	C291.790710,280.121643 291.790710,289.378662 291.790710,298.998901 
	C296.798279,298.998901 301.599274,299.089630 306.391083,298.920319 
	C307.319824,298.887451 308.212708,297.839996 309.122162,297.260620 
	C308.261444,296.789886 307.415771,295.948456 306.537415,295.912842 
	C302.802216,295.761292 299.057343,295.848450 295.152863,295.848450 
	C295.152863,288.244751 295.152863,281.430359 295.152802,273.640381 
M381.878265,114.447601 
	C381.878113,108.962738 382.004700,103.472565 381.775330,97.997307 
	C381.727020,96.844139 380.372803,95.745667 379.620300,94.621994 
	C379.191162,94.889442 378.762024,95.156898 378.332886,95.424347 
	C378.332886,104.835251 378.332886,114.246155 378.332886,123.657059 
	C378.746918,123.937462 379.160950,124.217873 379.574951,124.498283 
	C380.342194,123.469681 381.560028,122.526909 381.775940,121.393303 
	C382.142548,119.468529 381.877716,117.423485 381.878265,114.447601 
M526.525818,103.902298 
	C523.053833,103.727020 519.581848,103.551743 515.847595,103.363228 
	C515.847595,109.425476 515.772400,115.362976 515.927063,121.294472 
	C515.950745,122.204918 517.033630,123.087753 517.626587,123.983368 
	C518.135193,123.003174 518.882019,122.070953 519.091553,121.030525 
	C519.347534,119.759628 519.151917,118.397926 519.152893,117.075493 
	C519.159363,108.501854 519.161743,108.507225 526.295593,105.476105 
	C526.539368,105.372528 526.639282,104.930504 526.525818,103.902298 
M379.000671,275.618378 
	C379.000732,282.422119 378.909637,289.228363 379.095367,296.027008 
	C379.124542,297.094757 380.409058,298.128204 381.113159,299.177490 
	C381.551086,298.893860 381.989014,298.610260 382.426941,298.326630 
	C382.426941,289.870239 382.493225,281.412689 382.346832,272.958832 
	C382.327545,271.845459 381.221405,270.750885 380.618652,269.647614 
	C380.079315,269.869110 379.540009,270.090637 379.000671,270.312164 
	C379.000671,271.757507 379.000671,273.202850 379.000671,275.618378 
M553.427795,295.384827 
	C553.427551,287.917908 553.516357,280.448792 553.328918,272.986572 
	C553.301514,271.896149 551.957886,270.838776 551.223328,269.766113 
	C550.911438,270.070160 550.599548,270.374207 550.287659,270.678253 
	C550.287659,280.060883 550.287659,289.443481 550.287659,298.826111 
	C550.710266,299.023468 551.132935,299.220795 551.555542,299.418152 
	C552.179199,298.397614 552.802917,297.377075 553.427795,295.384827 
M244.671661,115.999054 
	C246.477600,115.998924 248.285492,115.944565 250.089050,116.010109 
	C253.699432,116.141312 253.032242,114.239532 252.328613,112.223022 
	C248.749817,112.223022 245.511063,112.223022 240.954849,112.223022 
	C242.228928,113.947525 242.985672,114.971779 244.671661,115.999054 
M248.431839,287.000671 
	C246.646103,287.000671 244.860382,287.000671 242.896484,287.000671 
	C242.896484,288.465179 242.896484,289.613251 242.896484,290.772369 
	C246.435852,290.772369 249.665436,290.772369 252.889954,290.772369 
	C252.882263,287.265991 252.882263,287.265991 248.431839,287.000671 
z"/>
<path fill="#3E9038" opacity="1.000000" stroke="none" 
	d="
M106.356613,268.989685 
	C106.283455,266.948517 106.210297,264.907349 106.610443,262.321411 
	C107.323929,259.989716 107.564095,258.202759 107.804260,256.415802 
	C107.778633,256.083069 107.753006,255.750305 108.190712,255.234039 
	C109.433243,255.364731 110.212440,255.678909 110.984467,256.366211 
	C110.949165,257.484589 110.921043,258.229858 110.613449,259.017578 
	C110.220413,259.704498 110.106842,260.348969 109.986557,261.395752 
	C109.682045,264.191711 109.384262,266.585358 109.099060,269.294647 
	C109.707512,270.084045 110.303375,270.557770 110.917480,271.447144 
	C112.122215,275.910126 112.813477,280.191681 114.594536,283.957855 
	C118.767517,292.781769 123.462601,301.358765 127.965492,310.408997 
	C133.357040,321.535339 138.729385,332.288422 144.101730,343.041534 
	C144.691696,342.984741 145.281662,342.927948 145.871628,342.871185 
	C151.241821,332.238007 156.612015,321.604828 162.029190,310.615723 
	C166.354202,301.708527 170.667526,293.174652 174.899277,284.600525 
	C178.413727,277.479736 181.655960,270.279175 179.059570,261.588898 
	C179.039978,259.437195 179.023056,257.715637 179.298431,255.866806 
	C180.390533,255.493057 181.190323,255.246552 181.990128,255.000061 
	C182.114502,255.310501 182.238876,255.620926 182.229095,256.480377 
	C182.416092,257.688202 182.737259,258.346985 183.058441,259.005768 
	C185.481415,266.797180 183.886871,274.450989 180.552353,281.291779 
	C169.281204,304.414734 157.426086,327.253021 145.782288,350.194092 
	C145.722672,350.311523 145.492355,350.342316 145.215546,350.473297 
	C144.861069,350.341980 144.163559,350.304718 144.005478,349.993469 
	C132.578171,327.495972 121.186386,304.980438 109.829628,282.447235 
	C109.316788,281.429718 109.152290,280.236603 108.874092,278.397583 
	C108.600441,277.111664 108.278236,276.553406 107.956024,275.995148 
	C107.843536,275.686646 107.731049,275.378174 107.767487,274.407837 
	C107.396469,272.160553 106.876541,270.575134 106.356613,268.989685 
z"/>
<path fill="#A53D4E" opacity="1.000000" stroke="none" 
	d="
M182.404510,99.493378 
	C182.387711,99.838638 182.370926,100.183891 181.966461,100.961136 
	C181.483521,102.043541 181.388245,102.693970 181.292969,103.344391 
	C177.545578,111.801048 174.107315,120.411896 169.983093,128.680618 
	C162.587204,143.508698 154.784149,158.133820 147.130600,172.833023 
	C146.631805,173.790985 145.957565,174.657578 144.812744,176.413681 
	C141.695770,170.534714 138.875000,165.392349 136.216522,160.167419 
	C127.727966,143.484146 119.230881,126.804337 110.910828,110.036972 
	C109.395042,106.982231 108.696953,103.521744 107.742584,99.450226 
	C107.345146,97.094986 106.826523,95.538078 106.307899,93.981178 
	C106.252182,91.948845 106.196465,89.916504 106.588699,87.344055 
	C107.246498,85.043533 107.456337,83.283134 107.666176,81.522736 
	C107.683983,81.170433 107.701790,80.818123 108.083809,80.225639 
	C108.448021,79.985458 108.940102,79.928596 109.210144,80.044327 
	C109.995201,80.439636 110.510223,80.719208 111.010742,81.367401 
	C110.971748,82.473244 110.947266,83.210472 110.610840,84.005997 
	C109.875290,84.712524 109.451675,85.360764 109.021667,86.460518 
	C109.213837,89.684052 108.897949,92.618050 109.709969,95.196892 
	C111.915146,102.200172 114.598183,109.052994 117.219620,116.285156 
	C122.925133,127.394890 128.502823,138.184937 134.211121,149.289673 
	C137.778763,155.763535 141.215775,161.922714 145.218307,169.095337 
	C149.564667,160.554489 153.272369,153.268646 157.051254,145.631195 
	C162.395981,135.177750 167.669525,125.075905 173.003479,114.608444 
	C174.285965,111.353386 175.526321,108.471535 176.726410,105.572983 
	C179.335892,99.270340 181.401321,92.896027 179.079926,85.580078 
	C179.030121,83.775375 178.992416,82.387009 179.229309,80.885025 
	C180.024811,80.487274 180.545731,80.203140 181.314117,79.950096 
	C181.561600,79.981178 182.060440,79.985405 182.060440,79.985405 
	C182.166580,80.321602 182.272736,80.657791 182.246094,81.668007 
	C182.643631,83.903687 183.173981,85.465347 183.704330,87.027000 
	C183.760056,89.059151 183.815796,91.091301 183.424652,93.664124 
	C182.786697,95.967659 182.595612,97.730522 182.404510,99.493378 
z"/>
<path fill="#46A33F" opacity="1.000000" stroke="none" 
	d="
M182.007050,254.621048 
	C181.190323,255.246552 180.390533,255.493057 178.981903,255.703278 
	C174.820419,250.185989 172.026154,243.962982 167.548782,239.386703 
	C159.550247,231.211487 148.736801,229.054184 138.016815,231.437714 
	C124.805527,234.375183 115.827545,243.208878 110.991646,255.993088 
	C110.212440,255.678909 109.433243,255.364731 108.338112,255.022629 
	C112.462593,240.287338 122.670181,231.471954 137.224686,228.139297 
	C158.901123,223.175903 177.160782,238.309296 182.007050,254.621048 
z"/>
<path fill="#BC495C" opacity="1.000000" stroke="none" 
	d="
M181.066650,79.919006 
	C180.545731,80.203140 180.024811,80.487274 178.918976,80.718323 
	C175.226776,73.736992 171.873459,67.103554 165.229904,62.614117 
	C156.892212,56.979862 147.942337,54.173439 138.080338,56.594620 
	C124.839546,59.845314 116.335823,68.750381 111.025246,80.998779 
	C110.510223,80.719208 109.995201,80.439636 109.224419,79.682289 
	C108.928398,78.722443 108.888145,78.240372 108.847885,77.758301 
	C113.697617,64.334221 123.473389,56.295856 137.054626,53.118721 
	C157.247787,48.394817 175.330414,61.438946 181.097458,77.723145 
	C181.059769,78.936638 181.063217,79.427826 181.066650,79.919006 
z"/>
<path fill="#0D0D0D" opacity="1.000000" stroke="none" 
	d="
M460.004211,297.666229 
	C458.914337,298.486450 457.842255,298.836823 456.379211,299.314972 
	C456.379211,289.213287 456.379211,279.824524 456.379211,269.975464 
	C460.531769,269.975464 464.479004,269.998077 468.425903,269.969482 
	C472.956512,269.936676 477.237579,270.384064 478.774384,275.676514 
	C480.019348,279.964050 478.178528,283.012299 472.651489,286.109772 
	C475.447144,290.125092 478.239105,294.146606 481.031097,298.168121 
	C480.672272,298.626587 480.313477,299.085022 479.954681,299.543488 
	C478.224579,298.373505 476.325012,297.384644 474.818787,295.975433 
	C473.642456,294.874847 472.849792,293.308441 472.068909,291.851318 
	C469.553680,287.157837 465.849518,285.122498 460.021973,286.618408 
	C460.021973,290.013184 460.021973,293.604797 460.004211,297.666229 
M467.254089,282.993225 
	C467.919495,282.988464 468.588135,283.024567 469.249756,282.972076 
	C472.565094,282.709045 475.223785,281.626709 474.962921,277.633728 
	C474.716919,273.867767 471.884888,273.289368 468.909454,273.186707 
	C465.992798,273.086090 463.069946,273.164734 460.234009,273.164734 
	C460.234009,276.794952 460.234009,279.734222 460.234009,282.993225 
	C462.417786,282.993225 464.379059,282.993225 467.254089,282.993225 
z"/>
<path fill="#131313" opacity="1.000000" stroke="none" 
	d="
M550.953918,110.086166 
	C554.167297,103.080193 556.131897,102.294044 563.536194,103.993378 
	C564.878723,104.301491 566.514648,103.331444 568.299438,102.879471 
	C568.299438,110.797340 568.779297,118.509361 568.123047,126.123459 
	C567.716370,130.841904 563.426208,132.131241 559.095093,132.009079 
	C554.903687,131.890869 551.736450,130.350693 551.100464,124.617523 
	C556.433838,127.118546 562.657715,133.564453 564.925415,123.013565 
	C555.340027,126.392609 549.554016,121.410690 550.953918,110.086166 
M565.301758,111.226089 
	C563.580261,109.493271 562.094421,107.305748 560.029480,106.235825 
	C559.114441,105.761711 555.857117,107.348114 555.687073,108.344582 
	C555.112549,111.710983 554.518311,115.583534 555.664429,118.605316 
	C557.102844,122.397598 563.102417,121.712158 564.679443,117.788704 
	C565.385559,116.031853 565.226868,113.927383 565.301758,111.226089 
z"/>
<path fill="#0D0D0D" opacity="1.000000" stroke="none" 
	d="
M399.805908,105.800934 
	C403.408600,102.238029 407.148071,102.450951 410.979919,104.352081 
	C413.653748,101.890022 409.293945,96.405609 415.042816,94.461586 
	C415.042816,104.827637 415.042816,114.225380 415.042816,123.208176 
	C412.022461,123.493011 409.215088,123.909477 406.398041,123.990921 
	C401.021515,124.146378 397.235199,119.609467 397.607880,113.114799 
	C397.743927,110.744446 398.873749,108.431107 399.805908,105.800934 
M401.007294,113.505173 
	C400.993805,117.376602 402.180695,120.722900 406.552673,120.874947 
	C410.758209,121.021194 412.049866,117.816772 412.111023,114.145439 
	C412.171844,110.491661 411.632599,106.749191 407.244263,106.150276 
	C402.714417,105.532051 401.314972,108.795509 401.007294,113.505173 
z"/>
<path fill="#000000" opacity="1.000000" stroke="none" 
	d="
M459.122559,95.000839 
	C463.940399,95.000717 468.273987,94.872368 472.591522,95.079132 
	C473.882416,95.140945 475.128418,96.139755 476.394989,96.709274 
	C475.194092,97.190468 474.007812,98.038208 472.789703,98.086647 
	C468.504517,98.257042 464.208374,98.152840 459.677795,98.152840 
	C459.677795,101.243073 459.677795,103.861115 459.677795,107.001282 
	C463.894989,107.001282 468.179321,106.928001 472.457275,107.060616 
	C473.356293,107.088493 474.231842,107.873093 475.118225,108.309006 
	C474.235321,108.923302 473.375092,110.025879 472.465668,110.068085 
	C468.340302,110.259537 464.201050,110.151894 459.753662,110.151894 
	C459.753662,113.769211 459.753662,117.007133 459.753662,120.847481 
	C464.560760,120.847481 469.339966,120.759048 474.110748,120.920723 
	C475.086456,120.953804 476.030426,121.924950 476.989014,122.463676 
	C476.010742,122.975487 475.042236,123.907173 474.052551,123.930260 
	C468.106628,124.069031 462.155884,123.999130 455.850372,123.999130 
	C455.850372,114.793510 455.781494,106.014168 455.971161,97.240417 
	C455.987701,96.475113 457.704865,95.746574 459.122559,95.000839 
z"/>
<path fill="#0F0F0F" opacity="1.000000" stroke="none" 
	d="
M576.797852,104.552231 
	C579.360413,103.860985 581.623108,103.047829 583.885864,103.047684 
	C589.191284,103.047333 591.078186,105.041672 591.175598,110.306870 
	C591.258179,114.772171 591.192566,119.240204 591.192566,122.957581 
	C587.765381,123.293259 584.022766,123.794853 580.264343,123.988602 
	C576.763306,124.169075 573.786499,122.877167 573.285645,119.062675 
	C572.774719,115.171822 575.431091,113.419136 578.880249,112.717361 
	C581.787720,112.125786 584.711060,111.612015 587.626648,111.063950 
	C587.665466,106.427734 584.776184,105.435440 581.641663,106.208931 
	C579.196411,106.812340 577.088379,108.782326 574.830505,110.145050 
	C574.463013,109.748215 574.095520,109.351387 573.728027,108.954552 
	C574.651367,107.569626 575.574768,106.184692 576.797852,104.552231 
M583.604248,114.974922 
	C581.981873,115.280197 580.077820,115.177147 578.835754,116.033813 
	C578.002808,116.608292 578.108398,118.543617 577.794067,119.870049 
	C579.838013,120.117401 582.096680,121.006454 583.860413,120.416321 
	C585.368652,119.911667 586.309326,117.710487 587.501038,116.259682 
	C586.481506,115.778740 585.461975,115.297791 583.604248,114.974922 
z"/>
<path fill="#0F0F0F" opacity="1.000000" stroke="none" 
	d="
M357.423462,284.776855 
	C357.247192,283.404663 356.973511,281.705994 357.694885,280.916077 
	C360.854797,277.455994 364.991486,277.461670 369.184998,278.479431 
	C373.126831,279.436096 373.486450,282.597565 373.487885,285.904144 
	C373.489777,290.192200 373.488373,294.480286 373.488373,297.908112 
	C370.107727,298.273956 366.651794,298.782501 363.177979,298.986481 
	C359.618347,299.195526 356.298798,298.405579 355.659668,294.206146 
	C355.015289,289.972015 357.827942,288.329071 361.465546,287.653015 
	C364.206024,287.143616 366.950928,286.657715 371.167542,285.894714 
	C369.316345,283.797363 368.313202,281.624542 367.031250,281.445251 
	C364.979248,281.158325 362.689148,282.035339 360.605713,282.735687 
	C359.545929,283.091949 358.717224,284.135712 357.423462,284.776855 
M369.701752,292.168671 
	C369.658539,291.247406 369.615295,290.326141 369.569458,289.349457 
	C367.611267,289.627411 365.923279,289.643127 364.393341,290.142822 
	C362.622498,290.721252 360.959656,291.674469 359.361115,292.647583 
	C359.241150,292.720612 359.855743,294.862091 360.396118,295.000763 
	C362.214325,295.467468 364.227264,295.849487 366.020782,295.506378 
	C367.261688,295.268951 368.263550,293.782196 369.701752,292.168671 
z"/>
<path fill="#0F0F0F" opacity="1.000000" stroke="none" 
	d="
M598.489441,288.234375 
	C598.489380,292.001617 598.489380,295.303497 598.489380,297.988129 
	C594.899963,298.321747 591.109314,298.853210 587.305420,298.974854 
	C583.826721,299.086121 580.955994,297.779907 580.599731,293.809906 
	C580.267395,290.107056 582.646790,288.437469 585.913696,287.773712 
	C588.818542,287.183472 591.743835,286.693573 594.629761,286.164948 
	C594.170166,281.791321 592.324707,280.095367 588.635681,281.206940 
	C586.254822,281.924377 584.210144,283.757874 581.041748,285.682190 
	C582.926941,279.343719 586.872437,277.228760 592.590942,278.045807 
	C598.588135,278.902649 598.626648,283.254456 598.489441,288.234375 
M588.533203,295.998932 
	C594.118958,294.921021 594.975708,293.903900 594.116577,289.404999 
	C592.161255,289.673004 590.136108,289.708984 588.277039,290.282898 
	C586.826904,290.730560 585.583191,291.846863 584.247742,292.666046 
	C585.416626,293.775146 586.585449,294.884247 588.533203,295.998932 
z"/>
<path fill="#0D0D0D" opacity="1.000000" stroke="none" 
	d="
M411.492493,279.182190 
	C412.145233,276.961334 412.129791,274.633179 412.611572,272.412903 
	C412.845154,271.336334 414.010559,270.461884 414.754089,269.495941 
	C415.113495,269.723145 415.472900,269.950348 415.832306,270.177551 
	C415.832306,279.608307 415.832306,289.039032 415.832306,298.405151 
	C412.781982,298.608643 409.526245,299.602112 406.805756,298.793884 
	C403.956268,297.947327 400.626190,295.909912 399.282043,293.430267 
	C396.980377,289.184418 397.418732,284.276855 400.979675,280.458649 
	C403.821777,277.411194 407.369537,277.258820 411.492493,279.182190 
M401.992523,290.993439 
	C402.812042,294.291199 404.924469,296.802429 408.240234,295.678192 
	C410.192017,295.016357 412.188171,292.248413 412.715057,290.076172 
	C413.895386,285.209961 411.224243,281.211304 407.524994,281.018738 
	C403.826813,280.826233 401.937836,283.524567 401.827545,289.170044 
	C401.821136,289.499329 401.872711,289.829773 401.992523,290.993439 
z"/>
<path fill="#131313" opacity="1.000000" stroke="none" 
	d="
M372.856873,114.127151 
	C372.856873,117.556190 372.856873,120.511879 372.856873,123.073410 
	C369.007935,123.386436 365.041473,123.933975 361.071411,123.961403 
	C357.841736,123.983704 355.177399,122.608063 354.841248,118.877151 
	C354.504059,115.134560 356.852844,113.493355 360.079285,112.792328 
	C362.967163,112.164879 365.888641,111.692131 368.755249,111.158577 
	C368.419159,106.825691 366.573120,105.098129 362.886566,106.212791 
	C360.538177,106.922859 358.538361,108.785919 355.519043,110.670914 
	C356.973236,104.456856 359.972290,102.606743 365.793030,102.967560 
	C370.352814,103.250221 372.849731,105.459488 372.852814,110.164337 
	C372.853577,111.327492 372.855469,112.490654 372.856873,114.127151 
M364.338440,115.023636 
	C362.421082,115.952690 360.503723,116.881744 358.586365,117.810799 
	C359.293823,118.796227 360.148438,120.697487 360.683777,120.611465 
	C363.252228,120.198723 365.864685,119.506668 368.172424,118.341309 
	C368.921722,117.962921 368.793518,115.846863 369.138428,114.178444 
	C367.347992,114.527237 366.254303,114.740295 364.338440,115.023636 
z"/>
<path fill="#0D0D0D" opacity="1.000000" stroke="none" 
	d="
M483.846741,290.403900 
	C483.568573,285.840424 484.161591,281.931946 488.035767,279.472015 
	C493.825409,275.795807 503.364471,278.740204 502.713531,288.736359 
	C497.868683,288.736359 492.974884,288.736359 487.807831,288.736359 
	C487.575256,293.101746 489.369232,295.872620 493.156067,295.768280 
	C496.103241,295.687073 499.004089,293.925140 502.771942,292.616119 
	C500.819031,298.232452 497.127960,299.190155 492.979889,298.977814 
	C487.853699,298.715363 484.650146,296.029327 483.846741,290.403900 
M498.297913,283.449219 
	C493.456238,279.452057 489.633606,280.274841 487.977478,285.985687 
	C491.178406,285.985687 494.289917,286.062042 497.389557,285.904327 
	C497.860657,285.880371 498.276520,284.770355 498.297913,283.449219 
z"/>
<path fill="#0D0D0D" opacity="1.000000" stroke="none" 
	d="
M437.300171,280.698242 
	C438.508881,283.381348 439.456573,285.780670 440.665131,288.840515 
	C434.789154,288.840515 429.849548,288.840515 424.700165,288.840515 
	C424.644531,293.147522 426.433136,295.951233 430.326385,295.790253 
	C433.245667,295.669525 436.099518,293.968109 439.566681,292.768311 
	C438.227051,297.853973 434.876221,298.704163 431.302917,298.988892 
	C427.358673,299.303162 424.061371,297.920166 421.982239,294.407288 
	C419.622620,290.420532 420.583679,283.381256 423.766418,280.435394 
	C427.250153,277.210815 431.783386,277.203705 437.300171,280.698242 
M430.433838,285.993225 
	C432.199829,285.993225 433.965820,285.993225 436.000031,285.993225 
	C435.430298,282.111633 433.149811,280.884918 430.054382,281.060760 
	C427.242462,281.220490 424.973236,282.324615 424.956909,285.993225 
	C426.584412,285.993225 428.059845,285.993225 430.433838,285.993225 
z"/>
<path fill="#131313" opacity="1.000000" stroke="none" 
	d="
M562.856934,293.850281 
	C562.856934,295.781860 562.856934,297.246735 562.856934,298.711578 
	C562.435486,298.964508 562.013977,299.217438 561.592529,299.470367 
	C560.777161,298.574951 559.271912,297.693542 559.253357,296.781982 
	C559.074890,287.981934 559.146362,279.176819 559.146362,270.379303 
	C562.284119,270.370453 562.284119,270.370453 563.175110,279.698303 
	C564.422974,279.169006 565.586914,278.491058 566.841919,278.175171 
	C571.931702,276.894226 575.833618,279.765289 576.003845,285.017914 
	C576.149048,289.498352 576.033875,293.987213 574.847778,299.335480 
	C574.065430,298.397095 572.688965,297.506897 572.608276,296.511688 
	C572.326538,293.034973 572.558228,289.520233 572.467102,286.023285 
	C572.395752,283.286072 571.401550,280.476135 568.259094,281.254364 
	C566.218445,281.759735 563.950378,283.967621 563.106628,285.969971 
	C562.209778,288.098328 562.874207,290.884583 562.856934,293.850281 
z"/>
<path fill="#0D0D0D" opacity="1.000000" stroke="none" 
	d="
M545.868469,120.883957 
	C541.037659,124.527733 536.226501,125.021118 532.309998,122.408157 
	C528.310547,119.739807 527.723511,115.655907 528.339172,111.381790 
	C529.160522,105.679550 533.810181,102.273987 539.301758,103.018829 
	C544.663086,103.746002 547.282654,107.453247 546.813904,113.926941 
	C542.067566,113.926941 537.293030,113.926941 531.007385,113.926941 
	C532.789124,116.579453 533.670898,119.407455 535.332764,119.983055 
	C537.413696,120.703812 540.140259,119.607109 542.578369,119.231476 
	C543.925354,119.023949 545.252258,118.686691 546.588257,118.407913 
	C546.424622,119.133125 546.260986,119.858330 545.868469,120.883957 
M540.070374,106.300140 
	C536.214111,105.492249 533.315918,106.360794 531.986145,110.992584 
	C535.166931,110.992584 537.943237,111.006134 540.719238,110.983910 
	C541.500610,110.977654 542.281189,110.866463 544.099915,110.719612 
	C542.675171,108.976730 541.739624,107.832268 540.070374,106.300140 
z"/>
<path fill="#0D0D0D" opacity="1.000000" stroke="none" 
	d="
M420.644592,117.967155 
	C420.378296,115.292274 419.868561,112.925552 420.242035,110.707573 
	C421.119019,105.499969 425.519684,102.459396 430.757172,103.005165 
	C436.105286,103.562477 438.815887,107.049438 438.919647,113.870644 
	C434.004395,113.870644 429.083740,113.870644 424.025421,113.870644 
	C423.763428,118.262222 425.754486,120.937218 429.573151,120.787529 
	C432.540253,120.671234 435.443176,118.918030 438.927582,117.698914 
	C437.599640,122.522003 434.479492,123.748787 430.843781,123.972206 
	C426.369202,124.247169 422.644104,122.901665 420.644592,117.967155 
M432.212219,110.993103 
	C435.123291,111.216385 436.271454,109.943748 433.944458,107.873276 
	C432.570984,106.651253 429.957916,105.969910 428.157379,106.328011 
	C426.467407,106.664124 425.112946,108.687347 423.610870,109.968201 
	C423.878906,110.309868 424.146942,110.651527 424.414978,110.993195 
	C426.716766,110.993195 429.018524,110.993195 432.212219,110.993103 
z"/>
<path fill="#0F0F0F" opacity="1.000000" stroke="none" 
	d="
M314.642731,105.561531 
	C320.168365,102.215958 324.743591,102.238190 328.195190,105.358833 
	C331.288544,108.155571 332.329498,114.516365 330.252502,118.790771 
	C328.152161,123.113220 324.358215,124.497536 319.906830,123.913055 
	C312.046234,122.880913 309.346954,113.869736 314.642731,105.561531 
M318.431122,120.120811 
	C321.755524,121.791389 324.780823,121.291801 326.575470,118.036377 
	C328.450958,114.634346 328.620056,110.639648 325.654785,107.915405 
	C324.221161,106.598320 320.844269,106.074562 318.991180,106.811310 
	C315.139587,108.342583 315.040924,112.192665 315.770782,115.766273 
	C316.049561,117.131241 317.091492,118.340340 318.431122,120.120811 
z"/>
<path fill="#0F0F0F" opacity="1.000000" stroke="none" 
	d="
M528.382080,295.534424 
	C524.219055,286.714539 527.115601,278.993042 534.603210,278.018402 
	C539.257019,277.412628 543.454468,279.763794 545.028259,283.857971 
	C546.875549,288.663727 545.600342,294.576843 542.182068,297.055939 
	C538.026306,300.069885 533.411438,299.655914 528.382080,295.534424 
M535.618713,295.976593 
	C541.590210,294.816895 544.463806,288.442993 540.822754,283.714264 
	C539.717346,282.278625 537.135803,281.078857 535.404480,281.278717 
	C533.668030,281.479248 531.516663,283.232330 530.657410,284.882904 
	C528.420837,289.179260 530.278259,293.462830 535.618713,295.976593 
z"/>
<path fill="#131313" opacity="1.000000" stroke="none" 
	d="
M331.966858,290.611328 
	C329.736267,297.636963 324.474091,300.584381 318.712524,298.425079 
	C313.365814,296.421265 310.933136,289.811554 313.308563,283.742004 
	C315.275055,278.717285 321.422272,276.462067 326.659241,278.913422 
	C331.516266,281.186981 332.254364,285.474030 331.966858,290.611328 
M324.780365,295.462799 
	C329.251160,292.727173 329.021027,288.511627 327.514496,284.540527 
	C326.921417,282.977264 324.396301,281.471161 322.589142,281.247650 
	C321.001801,281.051361 318.084015,282.339142 317.698669,283.576965 
	C316.826141,286.379608 316.244629,289.938751 317.303192,292.448700 
	C318.040863,294.197784 321.696594,294.716248 324.780365,295.462799 
z"/>
<path fill="#131313" opacity="1.000000" stroke="none" 
	d="
M485.858704,112.377655 
	C485.856689,115.657166 486.057526,118.502907 485.756897,121.294640 
	C485.636322,122.414200 484.413055,123.415024 483.691711,124.469887 
	C483.175507,124.216888 482.659332,123.963890 482.143127,123.710884 
	C482.143127,120.255348 482.143158,116.799820 482.143158,113.344284 
	C482.143158,109.938339 482.143127,106.532394 482.143127,104.099136 
	C485.493896,103.667046 487.998413,103.394424 490.486176,103.012558 
	C495.312897,102.271667 498.787781,104.830811 498.981812,109.646492 
	C499.168274,114.273712 499.022125,118.914337 499.022125,123.549080 
	C498.617706,123.835632 498.213287,124.122185 497.808868,124.408737 
	C497.039368,123.423271 495.714813,122.494987 495.606293,121.441444 
	C495.301544,118.482521 495.521149,115.471748 495.490021,112.481880 
	C495.459961,109.591774 495.472260,106.427246 491.599396,106.125282 
	C487.698334,105.821098 485.831207,108.063583 485.858704,112.377655 
z"/>
<path fill="#0F0F0F" opacity="1.000000" stroke="none" 
	d="
M336.478821,106.543213 
	C342.933350,100.986427 348.659149,101.871521 352.641388,109.960075 
	C350.564850,109.288780 348.966003,109.270424 348.320953,108.476814 
	C345.575714,105.099197 342.694763,105.133842 339.859680,107.963249 
	C337.163544,110.653992 337.573700,117.790298 340.532562,119.784828 
	C343.888885,122.047272 346.724396,121.329315 348.827759,117.655800 
	C349.307678,116.817612 350.679565,116.490128 352.462006,115.447174 
	C351.676941,121.387978 348.891785,123.666016 344.423798,124.000107 
	C339.929932,124.336121 335.642700,121.670204 335.173004,117.435135 
	C334.790283,113.984070 335.827301,110.375549 336.478821,106.543213 
z"/>
<path fill="#131313" opacity="1.000000" stroke="none" 
	d="
M343.371185,278.014771 
	C348.202179,277.759155 351.466248,279.298584 353.425476,285.342468 
	C351.200439,284.369751 349.699310,284.166199 348.955841,283.307007 
	C346.301208,280.239258 343.534058,280.214111 340.774170,282.792389 
	C337.980377,285.402344 338.348694,292.253357 341.186737,294.681152 
	C343.918671,297.018158 346.755768,296.260040 349.466736,292.719208 
	C350.136139,291.844849 351.408813,291.432373 353.106079,290.366974 
	C352.803711,295.868530 350.244324,298.184479 346.373260,298.877625 
	C342.052032,299.651337 338.271149,298.193604 336.392944,294.030548 
	C333.495483,287.608490 335.840454,278.899506 343.371185,278.014771 
z"/>
<path fill="#131313" opacity="1.000000" stroke="none" 
	d="
M515.117859,281.075073 
	C510.155243,283.523651 508.460571,288.926117 510.942383,293.162231 
	C513.054260,296.766876 517.370544,296.930664 519.993591,293.588623 
	C520.837341,292.513611 521.965820,291.662079 523.348145,291.110291 
	C523.082642,296.587372 520.482178,298.982880 515.783569,299.034058 
	C510.486938,299.091766 507.180511,295.970001 506.328949,290.107544 
	C505.496429,284.376160 508.153046,279.736786 513.082031,278.314331 
	C517.880432,276.929565 521.362183,278.665497 524.419922,284.941711 
	C522.379883,284.314575 521.138550,284.076599 520.028992,283.557251 
	C518.472046,282.828522 517.013000,281.890564 515.117859,281.075073 
z"/>
<path fill="#0D0D0D" opacity="1.000000" stroke="none" 
	d="
M294.841248,108.009979 
	C294.841248,112.466301 294.841248,116.425392 294.841248,120.230141 
	C299.524689,122.194489 305.050903,118.813522 308.969177,122.264351 
	C308.869690,122.771210 308.770233,123.278069 308.670746,123.784927 
	C302.941589,123.784927 297.212433,123.784927 291.227600,123.784927 
	C291.227600,114.357185 291.227600,104.980873 291.227600,95.594254 
	C294.688324,95.129791 294.751953,95.128242 294.823517,98.063431 
	C294.900299,101.211479 294.841125,104.362846 294.841248,108.009979 
z"/>
<path fill="#1B1B1B" opacity="1.000000" stroke="none" 
	d="
M505.120911,108.516815 
	C504.350708,106.715790 502.631622,104.983727 502.990479,104.051796 
	C504.051392,101.296608 505.933411,98.857597 508.629578,96.671013 
	C508.712433,97.542351 508.831665,98.412163 508.868439,99.285446 
	C508.910187,100.276558 508.878113,101.270775 508.878113,102.000046 
	C510.121338,102.900703 511.162750,103.655151 512.204163,104.409592 
	C511.427856,104.978371 510.509857,105.430573 509.917358,106.150597 
	C509.385437,106.797028 508.956604,107.728043 508.924988,108.550545 
	C508.809937,111.543472 508.384186,114.658653 509.043884,117.503151 
	C509.538757,119.636787 511.519806,121.425735 512.874634,123.420364 
	C506.765472,124.602867 505.248566,123.421234 505.131470,117.443832 
	C505.076019,114.614052 505.121735,111.782295 505.120911,108.516815 
z"/>
<path fill="#000000" opacity="1.000000" stroke="none" 
	d="
M295.152832,274.128174 
	C295.152863,281.430359 295.152863,288.244751 295.152863,295.848450 
	C299.057343,295.848450 302.802216,295.761292 306.537415,295.912842 
	C307.415771,295.948456 308.261444,296.789886 309.122162,297.260590 
	C308.212708,297.839996 307.319824,298.887451 306.391083,298.920319 
	C301.599274,299.089630 296.798279,298.998901 291.790710,298.998901 
	C291.790710,289.378662 291.790710,280.121643 291.790710,270.830811 
	C294.802277,270.048279 294.802277,270.048279 295.152832,274.128174 
z"/>
<path fill="#1B1B1B" opacity="1.000000" stroke="none" 
	d="
M381.878265,114.938293 
	C381.877716,117.423485 382.142548,119.468529 381.775940,121.393303 
	C381.560028,122.526909 380.342194,123.469681 379.574951,124.498283 
	C379.160950,124.217873 378.746918,123.937462 378.332886,123.657059 
	C378.332886,114.246155 378.332886,104.835251 378.332886,95.424347 
	C378.762024,95.156898 379.191162,94.889442 379.620300,94.621994 
	C380.372803,95.745667 381.727020,96.844139 381.775330,97.997307 
	C382.004700,103.472565 381.878113,108.962738 381.878265,114.938293 
z"/>
<path fill="#000000" opacity="1.000000" stroke="none" 
	d="
M526.666016,104.274261 
	C526.639282,104.930504 526.539368,105.372528 526.295593,105.476105 
	C519.161743,108.507225 519.159363,108.501854 519.152893,117.075493 
	C519.151917,118.397926 519.347534,119.759628 519.091553,121.030525 
	C518.882019,122.070953 518.135193,123.003174 517.626587,123.983360 
	C517.033630,123.087753 515.950745,122.204918 515.927063,121.294472 
	C515.772400,115.362976 515.847595,109.425476 515.847595,103.363228 
	C519.581848,103.551743 523.053833,103.727020 526.666016,104.274261 
z"/>
<path fill="#000000" opacity="1.000000" stroke="none" 
	d="
M379.000671,275.133301 
	C379.000671,273.202850 379.000671,271.757507 379.000671,270.312164 
	C379.540009,270.090637 380.079315,269.869110 380.618652,269.647614 
	C381.221405,270.750885 382.327545,271.845459 382.346832,272.958832 
	C382.493225,281.412689 382.426941,289.870239 382.426941,298.326630 
	C381.989014,298.610260 381.551086,298.893860 381.113159,299.177490 
	C380.409058,298.128204 379.124542,297.094757 379.095367,296.027008 
	C378.909637,289.228363 379.000732,282.422119 379.000671,275.133301 
z"/>
<path fill="#000000" opacity="1.000000" stroke="none" 
	d="
M553.427246,295.870667 
	C552.802917,297.377075 552.179199,298.397614 551.555542,299.418152 
	C551.132935,299.220795 550.710266,299.023468 550.287659,298.826111 
	C550.287659,289.443481 550.287659,280.060883 550.287659,270.678253 
	C550.599548,270.374207 550.911438,270.070160 551.223328,269.766113 
	C551.957886,270.838776 553.301514,271.896149 553.328918,272.986572 
	C553.516357,280.448792 553.427551,287.917908 553.427246,295.870667 
z"/>
<path fill="#000000" opacity="1.000000" stroke="none" 
	d="
M244.207031,115.997543 
	C242.985672,114.971779 242.228928,113.947525 240.954849,112.223022 
	C245.511063,112.223022 248.749817,112.223022 252.328613,112.223022 
	C253.032242,114.239532 253.699432,116.141312 250.089050,116.010109 
	C248.285492,115.944565 246.477600,115.998924 244.207031,115.997543 
z"/>
<path fill="#000000" opacity="1.000000" stroke="none" 
	d="
M248.908386,287.000671 
	C252.882263,287.265991 252.882263,287.265991 252.889954,290.772369 
	C249.665436,290.772369 246.435852,290.772369 242.896484,290.772369 
	C242.896484,289.613251 242.896484,288.465179 242.896484,287.000671 
	C244.860382,287.000671 246.646103,287.000671 248.908386,287.000671 
z"/>
<path fill="#D3596D" opacity="1.000000" stroke="none" 
	d="
M107.394478,81.768478 
	C107.456337,83.283134 107.246498,85.043533 106.674316,86.915283 
	C106.582237,85.355827 106.852509,83.685028 107.394478,81.768478 
z"/>
<path fill="#46A33F" opacity="1.000000" stroke="none" 
	d="
M107.541367,256.683655 
	C107.564095,258.202759 107.323929,259.989716 106.721039,261.895508 
	C106.665031,260.326721 106.971748,258.639130 107.541367,256.683655 
z"/>
<path fill="#D3596D" opacity="1.000000" stroke="none" 
	d="
M106.230331,94.349800 
	C106.826523,95.538078 107.345146,97.094986 107.751122,99.055832 
	C107.143234,97.879326 106.648003,96.298874 106.230331,94.349800 
z"/>
<path fill="#D3596D" opacity="1.000000" stroke="none" 
	d="
M183.784973,86.655228 
	C183.173981,85.465347 182.643631,83.903687 182.221771,81.933800 
	C182.842026,83.111534 183.353806,84.697502 183.784973,86.655228 
z"/>
<path fill="#D3596D" opacity="1.000000" stroke="none" 
	d="
M182.669037,99.244637 
	C182.595612,97.730522 182.786697,95.967659 183.340973,94.093201 
	C183.447296,95.653030 183.190430,97.324463 182.669037,99.244637 
z"/>
<path fill="#46A33F" opacity="1.000000" stroke="none" 
	d="
M106.292236,269.362488 
	C106.876541,270.575134 107.396469,272.160553 107.854317,274.171173 
	C107.270782,272.976013 106.749329,271.355652 106.292236,269.362488 
z"/>
<path fill="#D3596D" opacity="1.000000" stroke="none" 
	d="
M181.515045,103.241737 
	C181.388245,102.693970 181.483521,102.043541 181.864960,101.201660 
	C182.013107,101.719826 181.875122,102.429459 181.515045,103.241737 
z"/>
<path fill="#D3596D" opacity="1.000000" stroke="none" 
	d="
M108.637459,77.873238 
	C108.888145,78.240372 108.928398,78.722443 108.954376,79.566559 
	C108.940102,79.928596 108.448021,79.985458 108.200409,79.985718 
	C108.110870,79.320038 108.268951,78.654106 108.637459,77.873238 
z"/>
<path fill="#D3596D" opacity="1.000000" stroke="none" 
	d="
M181.314117,79.950089 
	C181.063217,79.427826 181.059769,78.936638 181.114822,78.080521 
	C181.556305,78.344666 181.939285,78.973755 182.191345,79.794128 
	C182.060440,79.985405 181.561600,79.981178 181.314117,79.950089 
z"/>
<path fill="#46A33F" opacity="1.000000" stroke="none" 
	d="
M107.853012,276.202148 
	C108.278236,276.553406 108.600441,277.111664 108.884827,278.012390 
	C108.481339,277.706329 108.115669,277.057739 107.853012,276.202148 
z"/>
<path fill="#46A33F" opacity="1.000000" stroke="none" 
	d="
M183.220474,258.752808 
	C182.737259,258.346985 182.416092,257.688202 182.150452,256.725128 
	C182.598160,257.113831 182.990341,257.806854 183.220474,258.752808 
z"/>
<path fill="#38BA30" opacity="1.000000" stroke="none" 
	d="
M109.086464,268.978973 
	C109.384262,266.585358 109.682045,264.191711 110.234650,261.393311 
	C110.489464,260.988525 110.985123,260.968323 111.039085,261.289795 
	C111.731155,261.376282 112.733704,261.320312 112.950806,260.878418 
	C115.045357,256.615356 116.459709,251.909668 119.117447,248.053436 
	C125.444305,238.873550 134.787018,233.724426 145.723038,234.372681 
	C160.245163,235.233505 170.612640,243.158539 175.574417,256.999817 
	C171.379318,256.661346 167.376343,253.931671 163.691254,257.852997 
	C162.706421,256.777893 162.033585,255.846481 161.337982,254.932388 
	C155.444427,247.187622 147.992233,244.091476 138.772217,247.224426 
	C131.267685,249.774460 126.857666,255.817902 125.616318,263.959564 
	C124.318527,263.533417 123.409996,263.125977 122.481476,262.770844 
	C116.705940,260.561707 113.406456,262.443909 114.171921,268.414520 
	C114.934410,274.361816 116.858574,280.203186 118.712448,285.949341 
	C119.631569,288.798187 121.536392,291.328979 123.004990,294.375671 
	C125.012711,299.164154 127.010704,303.580627 128.983673,308.302094 
	C128.621201,309.083313 128.283752,309.559540 127.946297,310.035736 
	C123.462601,301.358765 118.767517,292.781769 114.594536,283.957855 
	C112.813477,280.191681 112.122215,275.910126 110.909775,271.128967 
	C110.284698,269.923096 109.685577,269.451050 109.086464,268.978973 
z"/>
<path fill="#40C837" opacity="1.000000" stroke="none" 
	d="
M175.985352,257.011902 
	C170.612640,243.158539 160.245163,235.233505 145.723038,234.372681 
	C134.787018,233.724426 125.444305,238.873550 119.117447,248.053436 
	C116.459709,251.909668 115.045357,256.615356 112.950806,260.878418 
	C112.733704,261.320312 111.731155,261.376282 111.035950,260.957581 
	C110.950203,259.860962 110.921562,259.418030 110.892914,258.975098 
	C110.921043,258.229858 110.949165,257.484589 110.984467,256.366211 
	C115.827545,243.208878 124.805527,234.375183 138.016815,231.437714 
	C148.736801,229.054184 159.550247,231.211487 167.548782,239.386703 
	C172.026154,243.962982 174.820419,250.185989 178.689606,255.830536 
	C179.023056,257.715637 179.039978,259.437195 178.676804,261.582428 
	C177.534714,262.000793 176.772705,261.995514 176.008118,261.575409 
	C175.998810,259.777679 175.992081,258.394806 175.985352,257.011902 
z"/>
<path fill="#2EAE29" opacity="1.000000" stroke="none" 
	d="
M127.965492,310.408997 
	C128.283752,309.559540 128.621201,309.083313 129.309830,308.348267 
	C130.440475,309.059601 131.219925,310.029785 132.040619,311.359070 
	C136.153442,319.847717 140.225021,327.977295 144.272659,336.059052 
	C145.463577,335.517548 145.918594,335.462921 146.030426,335.237793 
	C150.039154,327.168427 154.015808,319.083099 158.248932,311.000000 
	C158.668900,311.000000 158.836899,311.000000 159.377258,310.999634 
	C160.493835,310.990082 161.238022,310.980865 161.982208,310.971649 
	C156.612015,321.604828 151.241821,332.238007 145.871628,342.871185 
	C145.281662,342.927948 144.691696,342.984741 144.101730,343.041534 
	C138.729385,332.288422 133.357040,321.535339 127.965492,310.408997 
z"/>
<path fill="#38BA30" opacity="1.000000" stroke="none" 
	d="
M162.029190,310.615723 
	C161.238022,310.980865 160.493835,310.990082 159.414490,310.639404 
	C161.725021,304.521332 164.370728,298.763184 167.327728,292.841797 
	C169.417877,288.980743 171.123871,285.245697 172.991837,281.593506 
	C176.171570,275.376617 177.017136,268.834473 176.010696,261.990234 
	C176.772705,261.995514 177.534714,262.000793 178.679504,262.012543 
	C181.655960,270.279175 178.413727,277.479736 174.899277,284.600525 
	C170.667526,293.174652 166.354202,301.708527 162.029190,310.615723 
z"/>
<path fill="#46A33F" opacity="1.000000" stroke="none" 
	d="
M109.099052,269.294647 
	C109.685577,269.451050 110.284698,269.923096 110.891525,270.713318 
	C110.303375,270.557770 109.707512,270.084045 109.099052,269.294647 
z"/>
<path fill="#46A33F" opacity="1.000000" stroke="none" 
	d="
M110.613449,259.017578 
	C110.921562,259.418030 110.950203,259.860962 110.981979,260.636108 
	C110.985123,260.968323 110.489464,260.988525 110.241371,260.990967 
	C110.106842,260.348969 110.220413,259.704498 110.613449,259.017578 
z"/>
<path fill="#D3596D" opacity="1.000000" stroke="none" 
	d="
M111.010742,81.367401 
	C116.335823,68.750381 124.839546,59.845314 138.080338,56.594620 
	C147.942337,54.173439 156.892212,56.979862 165.229904,62.614117 
	C171.873459,67.103554 175.226776,73.736992 178.644379,80.831940 
	C178.992416,82.387009 179.030121,83.775375 178.696655,85.580696 
	C177.563522,85.987785 176.801575,85.977913 176.031281,85.570610 
	C175.016647,82.447800 174.010391,79.722412 172.971436,76.644272 
	C170.841309,73.574593 168.988556,70.617966 166.603317,68.182945 
	C157.156052,58.538551 140.364868,57.569138 129.909164,63.495369 
	C123.342476,67.217331 118.525307,72.438248 115.024269,79.417328 
	C114.657402,81.862823 114.310722,83.916603 113.592728,85.977203 
	C112.478699,85.988235 111.735985,85.992439 110.993408,85.655083 
	C110.969963,84.858246 110.946381,84.402977 110.922791,83.947701 
	C110.947266,83.210472 110.971748,82.473244 111.010742,81.367401 
z"/>
<path fill="#CB2D41" opacity="1.000000" stroke="none" 
	d="
M156.980072,145.982803 
	C153.272369,153.268646 149.564667,160.554489 145.218307,169.095337 
	C141.215775,161.922714 137.778763,155.763535 134.582687,149.299103 
	C135.571213,148.993011 136.318787,148.992188 137.408295,149.051422 
	C140.018921,153.077454 142.287613,157.043427 145.109009,161.975601 
	C146.425720,159.563980 147.137726,158.176773 147.924973,156.833649 
	C150.250443,152.866150 152.605637,148.916107 155.120560,145.208588 
	C155.854645,145.632904 156.417358,145.807861 156.980072,145.982803 
z"/>
<path fill="#CD3A4F" opacity="1.000000" stroke="none" 
	d="
M137.066376,148.991364 
	C136.318787,148.992188 135.571213,148.993011 134.452057,148.984406 
	C128.502823,138.184937 122.925133,127.394890 117.588287,116.297943 
	C118.571510,115.993057 119.313911,115.995079 120.396996,116.052620 
	C122.485764,118.740532 124.233841,121.372917 125.995285,124.379013 
	C129.014084,130.833176 132.019531,136.913635 135.053192,143.348145 
	C135.743057,145.465240 136.404709,147.228302 137.066376,148.991364 
z"/>
<path fill="#CF4A5D" opacity="1.000000" stroke="none" 
	d="
M120.056305,115.997093 
	C119.313911,115.995079 118.571510,115.993057 117.460449,115.978241 
	C114.598183,109.052994 111.915146,102.200172 109.709969,95.196892 
	C108.897949,92.618050 109.213837,89.684052 109.348892,86.456955 
	C110.119431,86.000130 110.556351,85.998390 110.993271,85.996643 
	C111.735985,85.992439 112.478699,85.988235 113.558960,86.381607 
	C112.465393,93.271965 113.291359,99.381111 117.003738,105.387787 
	C118.027870,109.181877 119.042084,112.589485 120.056305,115.997093 
z"/>
<path fill="#CD3A4F" opacity="1.000000" stroke="none" 
	d="
M157.051254,145.631195 
	C156.417358,145.807861 155.854645,145.632904 155.130508,144.839508 
	C154.978134,143.480713 154.987183,142.740341 155.277649,141.796509 
	C158.377884,135.729507 161.196686,129.865997 164.290085,123.801598 
	C166.369659,120.738960 168.174652,117.877205 170.350739,115.012123 
	C171.462250,114.997215 172.202652,114.985641 172.943085,114.974075 
	C167.669525,125.075905 162.395981,135.177750 157.051254,145.631195 
z"/>
<path fill="#CF4A5D" opacity="1.000000" stroke="none" 
	d="
M173.003464,114.608444 
	C172.202652,114.985641 171.462250,114.997215 170.359772,114.625122 
	C170.665833,112.160965 171.333954,110.080482 172.279266,107.763718 
	C173.143311,106.038071 173.869598,104.587074 174.292038,103.052444 
	C175.830521,97.463577 178.101166,91.930786 176.039627,85.968040 
	C176.801575,85.977913 177.563522,85.987785 178.708740,85.997040 
	C181.401321,92.896027 179.335892,99.270340 176.726410,105.572983 
	C175.526321,108.471535 174.285965,111.353386 173.003464,114.608444 
z"/>
<path fill="#BC495C" opacity="1.000000" stroke="none" 
	d="
M110.993408,85.655090 
	C110.556351,85.998390 110.119431,86.000130 109.355286,86.005432 
	C109.451675,85.360764 109.875290,84.712524 110.610840,84.005997 
	C110.946381,84.402977 110.969963,84.858246 110.993408,85.655090 
z"/>
<path fill="#F6F6F6" opacity="1.000000" stroke="none" 
	d="
M466.797211,282.993225 
	C464.379059,282.993225 462.417786,282.993225 460.234009,282.993225 
	C460.234009,279.734222 460.234009,276.794952 460.234009,273.164734 
	C463.069946,273.164734 465.992798,273.086090 468.909454,273.186707 
	C471.884888,273.289368 474.716919,273.867767 474.962921,277.633728 
	C475.223785,281.626709 472.565094,282.709045 469.249756,282.972076 
	C468.588135,283.024567 467.919495,282.988464 466.797211,282.993225 
z"/>
<path fill="#F6F6F6" opacity="1.000000" stroke="none" 
	d="
M565.381226,111.603378 
	C565.226868,113.927383 565.385559,116.031853 564.679443,117.788704 
	C563.102417,121.712158 557.102844,122.397598 555.664429,118.605316 
	C554.518311,115.583534 555.112549,111.710983 555.687073,108.344582 
	C555.857117,107.348114 559.114441,105.761711 560.029480,106.235825 
	C562.094421,107.305748 563.580261,109.493271 565.381226,111.603378 
z"/>
<path fill="#F6F6F6" opacity="1.000000" stroke="none" 
	d="
M401.008240,113.093109 
	C401.314972,108.795509 402.714417,105.532051 407.244263,106.150276 
	C411.632599,106.749191 412.171844,110.491661 412.111023,114.145439 
	C412.049866,117.816772 410.758209,121.021194 406.552673,120.874947 
	C402.180695,120.722900 400.993805,117.376602 401.008240,113.093109 
z"/>
<path fill="#EEF3EE" opacity="1.000000" stroke="none" 
	d="
M584.023315,114.895889 
	C585.461975,115.297791 586.481506,115.778740 587.501038,116.259674 
	C586.309326,117.710487 585.368652,119.911667 583.860413,120.416321 
	C582.096680,121.006454 579.838013,120.117401 577.794067,119.870049 
	C578.108398,118.543617 578.002808,116.608292 578.835754,116.033813 
	C580.077820,115.177147 581.981873,115.280197 584.023315,114.895889 
z"/>
<path fill="#EEF3EE" opacity="1.000000" stroke="none" 
	d="
M369.536987,292.511200 
	C368.263550,293.782196 367.261688,295.268951 366.020782,295.506378 
	C364.227264,295.849487 362.214325,295.467468 360.396118,295.000763 
	C359.855743,294.862091 359.241150,292.720612 359.361115,292.647583 
	C360.959656,291.674469 362.622498,290.721252 364.393341,290.142822 
	C365.923279,289.643127 367.611267,289.627411 369.569458,289.349457 
	C369.615295,290.326141 369.658539,291.247406 369.536987,292.511200 
z"/>
<path fill="#EEF3EE" opacity="1.000000" stroke="none" 
	d="
M588.143799,295.996155 
	C586.585449,294.884247 585.416626,293.775146 584.247742,292.666046 
	C585.583191,291.846863 586.826904,290.730560 588.277039,290.282898 
	C590.136108,289.708984 592.161255,289.673004 594.116577,289.404999 
	C594.975708,293.903900 594.118958,294.921021 588.143799,295.996155 
z"/>
<path fill="#F6F6F6" opacity="1.000000" stroke="none" 
	d="
M401.944885,290.576538 
	C401.872711,289.829773 401.821136,289.499329 401.827545,289.170044 
	C401.937836,283.524567 403.826813,280.826233 407.524994,281.018738 
	C411.224243,281.211304 413.895386,285.209961 412.715057,290.076172 
	C412.188171,292.248413 410.192017,295.016357 408.240234,295.678192 
	C404.924469,296.802429 402.812042,294.291199 401.944885,290.576538 
z"/>
<path fill="#EEF3EE" opacity="1.000000" stroke="none" 
	d="
M364.749542,114.988495 
	C366.254303,114.740295 367.347992,114.527237 369.138428,114.178444 
	C368.793518,115.846863 368.921722,117.962921 368.172424,118.341309 
	C365.864685,119.506668 363.252228,120.198723 360.683777,120.611465 
	C360.148438,120.697487 359.293823,118.796227 358.586365,117.810791 
	C360.503723,116.881744 362.421082,115.952690 364.749542,114.988495 
z"/>
<path fill="#F6F6F6" opacity="1.000000" stroke="none" 
	d="
M498.507935,283.805969 
	C498.276520,284.770355 497.860657,285.880371 497.389557,285.904327 
	C494.289917,286.062042 491.178406,285.985687 487.977478,285.985687 
	C489.633606,280.274841 493.456238,279.452057 498.507935,283.805969 
z"/>
<path fill="#F6F6F6" opacity="1.000000" stroke="none" 
	d="
M429.984558,285.993225 
	C428.059845,285.993225 426.584412,285.993225 424.956909,285.993225 
	C424.973236,282.324615 427.242462,281.220490 430.054382,281.060760 
	C433.149811,280.884918 435.430298,282.111633 436.000031,285.993225 
	C433.965820,285.993225 432.199829,285.993225 429.984558,285.993225 
z"/>
<path fill="#F6F6F6" opacity="1.000000" stroke="none" 
	d="
M540.437256,106.493973 
	C541.739624,107.832268 542.675171,108.976730 544.099915,110.719612 
	C542.281189,110.866463 541.500610,110.977654 540.719238,110.983910 
	C537.943237,111.006134 535.166931,110.992584 531.986145,110.992584 
	C533.315918,106.360794 536.214111,105.492249 540.437256,106.493973 
z"/>
<path fill="#F6F6F6" opacity="1.000000" stroke="none" 
	d="
M431.766266,110.993149 
	C429.018524,110.993195 426.716766,110.993195 424.414978,110.993195 
	C424.146942,110.651527 423.878906,110.309868 423.610870,109.968201 
	C425.112946,108.687347 426.467407,106.664124 428.157379,106.328011 
	C429.957916,105.969910 432.570984,106.651253 433.944458,107.873276 
	C436.271454,109.943748 435.123291,111.216385 431.766266,110.993149 
z"/>
<path fill="#F6F6F6" opacity="1.000000" stroke="none" 
	d="
M318.108398,119.870636 
	C317.091492,118.340340 316.049561,117.131241 315.770782,115.766273 
	C315.040924,112.192665 315.139587,108.342583 318.991180,106.811310 
	C320.844269,106.074562 324.221161,106.598320 325.654785,107.915405 
	C328.620056,110.639648 328.450958,114.634346 326.575470,118.036377 
	C324.780823,121.291801 321.755524,121.791389 318.108398,119.870636 
z"/>
<path fill="#FBF6F7" opacity="1.000000" stroke="none" 
	d="
M535.228394,295.938232 
	C530.278259,293.462830 528.420837,289.179260 530.657410,284.882904 
	C531.516663,283.232330 533.668030,281.479248 535.404480,281.278717 
	C537.135803,281.078857 539.717346,282.278625 540.822754,283.714264 
	C544.463806,288.442993 541.590210,294.816895 535.228394,295.938232 
z"/>
<path fill="#F6F6F6" opacity="1.000000" stroke="none" 
	d="
M324.414612,295.623596 
	C321.696594,294.716248 318.040863,294.197784 317.303192,292.448700 
	C316.244629,289.938751 316.826141,286.379608 317.698669,283.576965 
	C318.084015,282.339142 321.001801,281.051361 322.589142,281.247650 
	C324.396301,281.471161 326.921417,282.977264 327.514496,284.540527 
	C329.021027,288.511627 329.251160,292.727173 324.414612,295.623596 
z"/>
<path fill="#2EAE29" opacity="1.000000" stroke="none" 
	d="
M176.008118,261.575409 
	C177.017136,268.834473 176.171570,275.376617 172.991837,281.593506 
	C171.123871,285.245697 169.417877,288.980743 166.981079,292.664856 
	C164.994415,292.102295 163.670547,291.090790 162.336273,291.076874 
	C150.461761,290.953217 138.583755,290.916565 126.712082,291.137878 
	C125.455772,291.161285 124.233391,293.004639 122.995270,294.003662 
	C121.536392,291.328979 119.631569,288.798187 118.712448,285.949341 
	C116.858574,280.203186 114.934410,274.361816 114.171921,268.414520 
	C113.406456,262.443909 116.705940,260.561707 122.481476,262.770844 
	C123.409996,263.125977 124.318527,263.533417 125.616623,264.402649 
	C126.003517,267.253479 126.010086,269.618347 126.155533,272.289612 
	C127.033653,273.689209 127.705704,274.835632 128.523239,275.866760 
	C133.161819,281.717255 138.892532,285.811157 146.689026,284.795624 
	C154.446457,283.785217 160.809845,280.397675 163.006516,271.578003 
	C163.341614,266.773132 163.667160,262.388916 163.992691,258.004700 
	C167.376343,253.931671 171.379318,256.661346 175.574417,256.999817 
	C175.992081,258.394806 175.998810,259.777679 176.008118,261.575409 
z"/>
<path fill="#25AC22" opacity="1.000000" stroke="none" 
	d="
M123.004990,294.375671 
	C124.233391,293.004639 125.455772,291.161285 126.712082,291.137878 
	C138.583755,290.916565 150.461761,290.953217 162.336273,291.076874 
	C163.670547,291.090790 164.994415,292.102295 166.669769,292.828125 
	C164.370728,298.763184 161.725021,304.521332 159.042114,310.639740 
	C158.836899,311.000000 158.668900,311.000000 157.897888,310.842316 
	C150.986221,310.123108 144.685333,309.353607 138.364517,309.117493 
	C136.269180,309.039246 134.122559,310.333344 131.999390,311.000000 
	C131.219925,310.029785 130.440475,309.059601 129.334854,308.043213 
	C127.010704,303.580627 125.012711,299.164154 123.004990,294.375671 
z"/>
<path fill="#40C837" opacity="1.000000" stroke="none" 
	d="
M163.691254,257.852997 
	C163.667160,262.388916 163.341614,266.773132 162.740463,271.689240 
	C161.947266,272.470032 161.429688,272.718964 160.936676,272.512543 
	C160.975540,269.739716 161.090515,267.417633 160.985580,265.105591 
	C160.650955,257.732788 156.289230,251.820938 150.080765,250.187759 
	C142.108368,248.090546 135.320419,251.179199 130.907516,257.829620 
	C127.819511,262.483368 128.746948,267.157379 128.680450,271.989441 
	C127.538681,271.989502 126.777672,271.986359 126.016655,271.983185 
	C126.010086,269.618347 126.003517,267.253479 125.996643,264.445557 
	C126.857666,255.817902 131.267685,249.774460 138.772217,247.224426 
	C147.992233,244.091476 155.444427,247.187622 161.337982,254.932388 
	C162.033585,255.846481 162.706421,256.777893 163.691254,257.852997 
z"/>
<path fill="#1CAB1A" opacity="1.000000" stroke="none" 
	d="
M132.040619,311.359070 
	C134.122559,310.333344 136.269180,309.039246 138.364517,309.117493 
	C144.685333,309.353607 150.986221,310.123108 157.645905,310.842316 
	C154.015808,319.083099 150.039154,327.168427 146.030426,335.237793 
	C145.918594,335.462921 145.463577,335.517548 144.272659,336.059052 
	C140.225021,327.977295 136.153442,319.847717 132.040619,311.359070 
z"/>
<path fill="#CF455B" opacity="1.000000" stroke="none" 
	d="
M115.044449,79.025604 
	C118.525307,72.438248 123.342476,67.217331 129.909164,63.495369 
	C140.364868,57.569138 157.156052,58.538551 166.603317,68.182945 
	C168.988556,70.617966 170.841309,73.574593 172.516922,76.646149 
	C168.383118,77.335602 164.671158,77.670433 160.613281,77.969818 
	C156.927612,75.956612 153.813690,73.205887 150.204208,72.151367 
	C140.771942,69.395691 133.604095,73.515388 127.660629,80.824463 
	C123.226753,80.108055 119.135597,79.566833 115.044449,79.025604 
z"/>
<path fill="#CD3A4F" opacity="1.000000" stroke="none" 
	d="
M160.959183,78.005264 
	C164.671158,77.670433 168.383118,77.335602 172.549622,76.998901 
	C174.010391,79.722412 175.016647,82.447800 176.031281,85.570610 
	C178.101166,91.930786 175.830521,97.463577 174.292038,103.052444 
	C173.869598,104.587074 173.143311,106.038071 171.812531,107.763435 
	C166.046722,107.654129 161.024857,107.308823 156.148148,106.666908 
	C157.674484,104.932106 159.105240,103.537888 160.427322,102.047295 
	C164.027786,97.987915 165.366806,93.327927 163.989548,87.592491 
	C162.978821,84.129539 161.969009,81.067398 160.959183,78.005264 
z"/>
<path fill="#CD3A4F" opacity="1.000000" stroke="none" 
	d="
M115.024269,79.417328 
	C119.135597,79.566833 123.226753,80.108055 127.612320,81.210800 
	C127.921394,84.193657 127.936050,86.615005 127.729614,89.329521 
	C127.015533,91.425545 125.693893,93.516022 126.199379,94.972275 
	C127.304344,98.155571 129.337296,101.016747 130.530273,104.007370 
	C125.710854,104.337257 121.352341,104.669289 116.993828,105.001320 
	C113.291359,99.381111 112.465393,93.271965 113.930267,86.374771 
	C114.310722,83.916603 114.657402,81.862823 115.024269,79.417328 
z"/>
<path fill="#C81D2F" opacity="1.000000" stroke="none" 
	d="
M154.996231,141.999985 
	C154.987183,142.740341 154.978134,143.480713 154.959137,144.590149 
	C152.605637,148.916107 150.250443,152.866150 147.924973,156.833649 
	C147.137726,158.176773 146.425720,159.563980 145.109009,161.975601 
	C142.287613,157.043427 140.018921,153.077454 137.408295,149.051422 
	C136.404709,147.228302 135.743057,145.465240 135.360962,143.112305 
	C142.092422,142.348282 148.544327,142.174133 154.996231,141.999985 
z"/>
<path fill="#CB2D41" opacity="1.000000" stroke="none" 
	d="
M117.003738,105.387787 
	C121.352341,104.669289 125.710854,104.337257 130.808044,104.202385 
	C139.051956,111.424042 147.302948,111.335365 156.002975,106.963524 
	C161.024857,107.308823 166.046722,107.654129 171.535339,107.999710 
	C171.333954,110.080482 170.665833,112.160965 169.988678,114.628448 
	C168.174652,117.877205 166.369659,120.738960 163.872864,123.748428 
	C152.529526,123.597351 141.878937,123.246956 131.225510,123.051361 
	C129.484070,123.019386 127.730095,123.670120 125.981918,124.005310 
	C124.233841,121.372917 122.485764,118.740532 120.396988,116.052620 
	C119.042084,112.589485 118.027870,109.181877 117.003738,105.387787 
z"/>
<path fill="#CA2538" opacity="1.000000" stroke="none" 
	d="
M125.995285,124.379013 
	C127.730095,123.670120 129.484070,123.019386 131.225510,123.051361 
	C141.878937,123.246956 152.529526,123.597351 163.598282,123.949326 
	C161.196686,129.865997 158.377884,135.729507 155.277649,141.796509 
	C148.544327,142.174133 142.092422,142.348282 135.332733,142.758270 
	C132.019531,136.913635 129.014084,130.833176 125.995285,124.379013 
z"/>
<path fill="#38BA30" opacity="1.000000" stroke="none" 
	d="
M160.912125,272.967896 
	C161.429688,272.718964 161.947266,272.470032 162.730896,272.109863 
	C160.809845,280.397675 154.446457,283.785217 146.689026,284.795624 
	C138.892532,285.811157 133.161819,281.717255 128.523239,275.866760 
	C127.705704,274.835632 127.033653,273.689209 126.155533,272.289612 
	C126.777672,271.986359 127.538681,271.989502 128.975449,272.143250 
	C130.754333,273.506836 131.963684,274.640259 132.942368,275.946533 
	C137.400330,281.896393 145.934784,283.921539 152.299606,280.030243 
	C155.437012,278.112152 158.057648,275.348785 160.912125,272.967896 
z"/>
<path fill="#3F9739" opacity="1.000000" stroke="none" 
	d="
M160.936676,272.512543 
	C158.057648,275.348785 155.437012,278.112152 152.299606,280.030243 
	C145.934784,283.921539 137.400330,281.896393 132.942368,275.946533 
	C131.963684,274.640259 130.754333,273.506836 129.356201,272.140015 
	C128.746948,267.157379 127.819511,262.483368 130.907516,257.829620 
	C135.320419,251.179199 142.108368,248.090546 150.080765,250.187759 
	C156.289230,251.820938 160.650955,257.732788 160.985580,265.105591 
	C161.090515,267.417633 160.975540,269.739716 160.936676,272.512543 
M146.232666,277.869110 
	C147.661346,277.465729 149.189102,277.265289 150.501923,276.624512 
	C156.888794,273.507141 159.308731,265.836395 155.947678,259.686584 
	C152.588516,253.540253 144.913773,251.471970 138.803406,255.066330 
	C134.437744,257.634369 131.958923,263.098907 133.033295,267.786591 
	C134.474915,274.076660 138.272827,277.177124 146.232666,277.869110 
z"/>
<path fill="#D3596D" opacity="1.000000" stroke="none" 
	d="
M127.950714,89.036346 
	C127.936050,86.615005 127.921394,84.193657 127.955048,81.385979 
	C133.604095,73.515388 140.771942,69.395691 150.204208,72.151367 
	C153.813690,73.205887 156.927612,75.956612 160.613281,77.969818 
	C161.969009,81.067398 162.978821,84.129539 163.599808,87.594330 
	C162.170883,87.983398 161.130783,87.969826 160.068848,87.577827 
	C158.731720,84.734741 157.416458,82.270088 156.013245,79.480606 
	C151.051422,74.060707 145.393982,73.085426 138.664337,75.992538 
	C133.607285,79.200905 129.350098,82.687630 128.662643,88.972092 
	C128.425110,88.990982 127.950714,89.036346 127.950714,89.036346 
z"/>
<path fill="#CF4A5D" opacity="1.000000" stroke="none" 
	d="
M160.090698,87.956253 
	C161.130783,87.969826 162.170883,87.983398 163.600708,87.995140 
	C165.366806,93.327927 164.027786,97.987915 160.427322,102.047295 
	C159.105240,103.537888 157.674484,104.932106 156.148148,106.666908 
	C147.302948,111.335365 139.051956,111.424042 131.268951,104.204521 
	C129.337296,101.016747 127.304344,98.155571 126.199379,94.972275 
	C125.693893,93.516022 127.015533,91.425545 127.729614,89.329521 
	C127.950714,89.036346 128.425110,88.990982 128.692902,89.395851 
	C129.126694,96.949196 133.244827,104.003326 138.818344,105.686958 
	C145.517105,107.710495 151.770035,106.928925 156.979446,101.569069 
	C160.838120,97.598953 159.796860,92.659462 160.090698,87.956253 
z"/>
<path fill="#EEF3EE" opacity="1.000000" stroke="none" 
	d="
M145.831177,277.887817 
	C138.272827,277.177124 134.474915,274.076660 133.033295,267.786591 
	C131.958923,263.098907 134.437744,257.634369 138.803406,255.066330 
	C144.913773,251.471970 152.588516,253.540253 155.947678,259.686584 
	C159.308731,265.836395 156.888794,273.507141 150.501923,276.624512 
	C149.189102,277.265289 147.661346,277.465729 145.831177,277.887817 
z"/>
<path fill="#A53D4E" opacity="1.000000" stroke="none" 
	d="
M160.068848,87.577827 
	C159.796860,92.659462 160.838120,97.598953 156.979446,101.569069 
	C151.770035,106.928925 145.517105,107.710495 138.818344,105.686958 
	C133.244827,104.003326 129.126694,96.949196 128.930420,89.376961 
	C129.350098,82.687630 133.607285,79.200905 138.667694,76.379539 
	C139.011414,77.483299 139.007675,78.254364 138.700684,79.182297 
	C131.539291,85.099197 129.874161,91.860939 134.023117,97.102417 
	C138.991409,103.378983 146.471878,104.742233 152.410583,100.910133 
	C158.189407,97.181206 159.050293,87.879089 154.701447,81.379425 
	C155.305054,80.607018 155.703125,80.206223 156.101196,79.805435 
	C157.416458,82.270088 158.731720,84.734741 160.068848,87.577827 
z"/>
<path fill="#BC495C" opacity="1.000000" stroke="none" 
	d="
M156.013245,79.480606 
	C155.703125,80.206223 155.305054,80.607018 154.393890,81.190750 
	C149.395905,77.587723 144.328674,77.490845 139.003922,79.025429 
	C139.007675,78.254364 139.011414,77.483299 139.011795,76.325241 
	C145.393982,73.085426 151.051422,74.060707 156.013245,79.480606 
z"/>
<path fill="#FBF6F7" opacity="1.000000" stroke="none" 
	d="
M138.700684,79.182297 
	C144.328674,77.490845 149.395905,77.587723 154.188354,81.562370 
	C159.050293,87.879089 158.189407,97.181206 152.410583,100.910133 
	C146.471878,104.742233 138.991409,103.378983 134.023117,97.102417 
	C129.874161,91.860939 131.539291,85.099197 138.700684,79.182297 
z"/>
</svg>